<?xml version="1.0" encoding="UTF-8"?>
<svg version="1.1" xmlns="http://www.w3.org/2000/svg" width="512" height="512">
<path d="M0 0 C1.84977527 -0.00407537 3.6995481 -0.00942262 5.54931641 -0.01593018 C10.52867718 -0.02949482 15.50784947 -0.02435041 20.48721313 -0.01479292 C25.72520413 -0.0071396 30.96318017 -0.01425755 36.20117188 -0.01895142 C44.99351872 -0.02439257 53.7857897 -0.01726058 62.578125 -0.00292969 C72.70914542 0.01339362 82.83998464 0.00810395 92.97100067 -0.0084089 C101.70608814 -0.02207069 110.44112141 -0.02392058 119.17621613 -0.0160929 C124.37719182 -0.01144209 129.57808266 -0.01071952 134.77905273 -0.02070236 C139.67120751 -0.02943841 144.56313114 -0.02323029 149.45526123 -0.00601959 C151.23890806 -0.00208991 153.02257472 -0.00312752 154.80621338 -0.00980759 C181.26439297 -0.09967955 204.92019561 7.35927716 224.52539062 25.82421875 C245.98889474 47.22758229 252.28006685 74.5222998 252.39729309 103.97570801 C252.39703179 105.58195011 252.39609534 107.18819223 252.39453125 108.79443359 C252.39843318 110.49735617 252.40277083 112.2002778 252.40751648 113.90319824 C252.41489877 117.43598624 252.41474302 120.9686741 252.40942383 124.50146484 C252.40358979 129.00779975 252.42069311 133.51372887 252.4437685 138.01999664 C252.45854336 141.5220373 252.4593733 145.02398045 252.45625877 148.52604675 C252.45676846 150.1876863 252.46193909 151.84933181 252.47207069 153.51094055 C252.58085275 173.80931498 252.58085275 173.80931498 246.71875 179.82568359 C242.21321873 182.50754744 238.66624924 183.63792682 233.40959454 183.6454525 C231.69868162 183.65512584 231.69868162 183.65512584 229.95320481 183.6649946 C228.70477683 183.66189739 227.45634885 183.65880019 226.17008972 183.65560913 C224.82678847 183.65934627 223.48348939 183.66394804 222.14019376 183.66933978 C218.4499974 183.68157744 214.75989164 183.68130842 211.06967962 183.67895103 C207.08933131 183.67854305 203.10901212 183.68958015 199.12867737 183.69906616 C191.33077829 183.71568137 183.53290944 183.72117595 175.73499414 183.72229092 C169.39650429 183.72324115 163.05802442 183.72735022 156.71953773 183.73369217 C138.74956446 183.75130607 120.77961507 183.76053082 102.8096331 183.75903122 C101.84080134 183.75895131 100.87196959 183.7588714 99.8737793 183.75878906 C98.41875766 183.75866642 98.41875766 183.75866642 96.93434165 183.7585413 C81.21343053 183.75772838 65.49261522 183.77686723 49.77173182 183.8050658 C33.63043093 183.83379005 17.48917677 183.84760634 1.34784967 183.84587824 C-7.71459637 183.84521418 -16.77694198 183.85071367 -25.83936501 183.87223434 C-33.55534023 183.89044012 -41.2711695 183.89479848 -48.98715691 183.8812155 C-52.92337787 183.87468273 -56.85931878 183.87457954 -60.79551315 183.891922 C-64.40114445 183.90764453 -68.00627344 183.90479797 -71.61189242 183.88735373 C-73.52943479 183.88283024 -75.44699269 183.8979477 -77.36447459 183.91383302 C-84.34491475 183.85792789 -89.00360253 183.22147681 -94.90625 179.38818359 C-99.69732556 173.49147521 -100.05644369 168.77689863 -100.06738281 161.40112305 C-100.07234772 160.59879242 -100.07731262 159.79646179 -100.08242798 158.96981812 C-100.09703418 156.31369156 -100.10385376 153.65762499 -100.109375 151.00146484 C-100.11220238 150.08858389 -100.11502975 149.17570293 -100.11794281 148.23515892 C-100.13293973 143.39155157 -100.14216231 138.54797397 -100.14648438 133.7043457 C-100.1519286 128.74445468 -100.17586842 123.78484383 -100.20445633 118.82503986 C-100.22327253 114.97695686 -100.22829857 111.12893829 -100.22982025 107.28081322 C-100.23281151 105.45552244 -100.2407176 103.63023181 -100.25400543 101.80498695 C-100.45323254 72.3001235 -92.92801026 46.84548696 -71.90625 25.38818359 C-51.77245871 6.17875575 -27.02939401 -0.10123029 0 0 Z " fill="#ccc" transform="translate(179.90625,284.61181640625)"/>
<path d="M0 0 C15.63537337 13.53768151 25.41067815 31.09032829 31.19921875 50.6953125 C31.54082031 51.8503125 31.88242187 53.0053125 32.234375 54.1953125 C38.46448875 79.69531295 34.07750921 106.04906969 21.5078125 128.75 C6.38189773 153.52702048 -16.67686655 170.73018066 -44.80078125 177.6953125 C-72.54561761 184.08503239 -101.21692915 177.71229545 -125.07910156 162.8125 C-147.58817965 148.20649584 -162.90638507 124.90928543 -168.54980469 98.82641602 C-173.93050159 71.49918739 -168.91300151 44.36673062 -153.90625 20.80078125 C-138.81463487 -1.45865108 -116.21730805 -17.48894637 -89.80078125 -23.3046875 C-56.6691972 -29.31186014 -25.92473234 -21.33276441 0 0 Z " fill="#ccc" transform="translate(323.80078125,69.3046875)"/>
</svg>
