<?xml version="1.0" encoding="UTF-8"?>
<svg version="1.1" xmlns="http://www.w3.org/2000/svg" width="512" height="512">
<path d="M0 0 C0.66547852 0.18191895 1.33095703 0.36383789 2.01660156 0.55126953 C34.01331626 9.47113095 61.23659732 31.29313661 79 59 C79.62777344 59.97710937 80.25554687 60.95421875 80.90234375 61.9609375 C94.48630976 84.13520148 99.82102701 109.27448692 99 135 C99.680625 135.01417969 100.36125 135.02835938 101.0625 135.04296875 C126.41630526 136.29042991 149.46537951 150.63547062 166.53125 168.67578125 C186.89882461 191.90361711 192.8148138 219.71529473 191 250 C190.31608375 256.18483881 188.9034148 262.08409929 187 268 C186.68651611 268.98033203 186.68651611 268.98033203 186.36669922 269.98046875 C177.68674027 296.03985111 158.08363386 316.46683784 134 329 C120.1294067 335.56812462 105.64214037 338.46515867 90.33381653 338.38768005 C88.38200243 338.39575836 88.38200243 338.39575836 86.39075774 338.40399987 C82.82189441 338.41831066 79.25326482 338.41425541 75.68438947 338.40683305 C71.8185023 338.4020675 67.95266329 338.41464107 64.08679199 338.42485046 C56.52905691 338.44197931 48.97140518 338.44289063 41.41365574 338.43763756 C35.26425873 338.43358271 29.1148862 338.43505497 22.96549034 338.44038582 C21.64855388 338.44150845 21.64855388 338.44150845 20.30501264 338.44265376 C18.52094 338.44418538 16.73686738 338.44572373 14.95279475 338.44726873 C-1.7500825 338.46097298 -18.45291283 338.45557124 -35.155789 338.44408352 C-50.39987913 338.43415854 -65.64384775 338.4470828 -80.88791915 338.47101771 C-96.5786889 338.49546637 -112.2694022 338.50500213 -127.96019059 338.49836498 C-136.75401074 338.49488487 -145.54773757 338.49702423 -154.3415432 338.51461601 C-161.82935675 338.52941057 -169.31701131 338.52987975 -176.80482199 338.5125451 C-180.61689923 338.50409095 -184.42869335 338.50174647 -188.24075508 338.51719666 C-222.75893657 338.64693881 -252.15310868 331.96585071 -278 308 C-279.24910156 306.8553125 -279.24910156 306.8553125 -280.5234375 305.6875 C-294.17689228 292.63982991 -303.38814937 275.88619159 -309 258 C-309.21172852 257.3414502 -309.42345703 256.68290039 -309.64160156 256.00439453 C-318.49988901 227.24654692 -313.21958865 196.40464831 -299.6875 170.1875 C-295.89096186 163.07770692 -291.39641423 157.00034507 -286 151 C-285.38898438 150.2471875 -284.77796875 149.494375 -284.1484375 148.71875 C-267.83631306 129.00537408 -242.83607646 117.21804087 -218 113 C-216.89205078 112.80277344 -216.89205078 112.80277344 -215.76171875 112.6015625 C-201.04801494 110.4873604 -186.48050398 112.302966 -172 115 C-171.76925781 113.73027344 -171.53851563 112.46054688 -171.30078125 111.15234375 C-166.47476695 85.3497913 -157.06289728 63.1681525 -140 43 C-138.98486328 41.78183594 -138.98486328 41.78183594 -137.94921875 40.5390625 C-121.11501472 21.02738909 -97.80744487 6.78150248 -73 0 C-71.97471191 -0.29414795 -71.97471191 -0.29414795 -70.92871094 -0.59423828 C-48.64081366 -6.76961172 -22.17888188 -6.3629654 0 0 Z M-111 71 C-127.94731669 91.23268902 -133.82350972 117.17660562 -132 143 C-130.93317395 151.31377381 -128.48433459 159.02814134 -125.25 166.75 C-122.43695791 173.6998687 -121.34070015 180.96031801 -123.734375 188.23046875 C-126.28477025 193.13266289 -129.88913322 196.08223183 -134.875 198.25 C-141.43722414 199.82493379 -147.12878185 199.3018098 -153 196 C-160.44613854 190.37521909 -164.259019 178.82219435 -165.7734375 169.8671875 C-166.45022042 165.99323716 -167.22925674 162.5547671 -169 159 C-173.40095283 156.03286824 -177.83136434 154.99584184 -183 154 C-184.05574219 153.7628125 -185.11148438 153.525625 -186.19921875 153.28125 C-205.34592132 149.47693785 -224.13052474 153.98102592 -240.5625 164.27734375 C-245.07749927 167.46823266 -249.05745609 171.13526945 -253 175 C-253.70125 175.66515625 -254.4025 176.3303125 -255.125 177.015625 C-268.09118167 190.28570155 -273.67597983 209.3359264 -273.47094727 227.51318359 C-272.70774173 248.68454571 -263.47637482 266.22066864 -248.1875 280.75 C-236.62444104 290.71202003 -221.08622878 298.11072216 -205.5741024 298.13142776 C-204.49107822 298.13526891 -203.40805403 298.13911005 -202.29221094 298.1430676 C-201.10808449 298.14220112 -199.92395804 298.14133463 -198.70394897 298.14044189 C-197.44153684 298.14341302 -196.17912471 298.14638414 -194.87845767 298.1494453 C-191.3764992 298.15750271 -187.87456124 298.15930417 -184.37259459 298.16004276 C-180.59465344 298.16189554 -176.81672287 298.16944405 -173.03878784 298.17617798 C-164.77827967 298.18975336 -156.51777636 298.19578491 -148.25725889 298.20018864 C-143.09734335 298.20295267 -137.93742969 298.20719034 -132.77751541 298.21169281 C-118.48578954 298.22388494 -104.19406517 298.23418404 -89.90233421 298.2375679 C-88.98781751 298.23778747 -88.07330081 298.23800703 -87.13107149 298.23823325 C-85.7560465 298.23856067 -85.7560465 298.23856067 -84.35324323 298.2388947 C-82.49574939 298.23933816 -80.63825556 298.23978473 -78.78076172 298.24023438 C-77.39869523 298.24056652 -77.39869523 298.24056652 -75.98870821 298.24090537 C-61.06522514 298.24485184 -46.14179094 298.26230149 -31.21832673 298.2855939 C-15.88949516 298.30932546 -0.5606881 298.32177059 14.76816213 298.32293582 C23.3718217 298.32385162 31.9754176 298.32957986 40.5790596 298.34775543 C47.90662517 298.36318086 55.23410739 298.36826254 62.56168611 298.36001733 C66.29773802 298.35611932 70.03362221 298.35699864 73.76965332 298.37107468 C77.82723811 298.38622184 81.8844475 298.37792194 85.94204712 298.36749268 C87.11278924 298.37554908 88.28353135 298.38360548 89.4897505 298.39190602 C105.56213819 298.29550358 120.2635687 292.49658995 131.828125 281.234375 C132.54484375 280.49703125 133.2615625 279.7596875 134 279 C134.63421875 278.38640625 135.2684375 277.7728125 135.921875 277.140625 C147.08445737 265.58290697 151.53047899 249.87631093 151.41992188 234.1940918 C150.92856825 218.25187136 144.38490058 203.72041722 133.3828125 192.21484375 C120.69014391 180.41690425 105.26161898 174.20001876 88 174 C85.74763773 174.18101649 83.49726627 174.38899771 81.25 174.625 C74.09765949 175.29013312 69.16123518 173.99295261 63.125 170.1875 C59.75333754 166.716671 58.13822664 163.43327858 57.671875 158.59765625 C57.69765625 157.43105469 57.7234375 156.26445312 57.75 155.0625 C57.76546875 153.89847656 57.7809375 152.73445313 57.796875 151.53515625 C58 148 58 148 58.5 144.65234375 C61.89204938 119.87448307 55.42894654 94.41956927 40.6953125 74.21044922 C25.13320352 53.86211251 4.06907646 41.8589586 -20.75 36.39453125 C-56.41410817 32.06511427 -87.078307 44.54291001 -111 71 Z " fill="#000000" transform="translate(317,89)"/>
</svg>
