<svg xmlns="http://www.w3.org/2000/svg" width="512" height="512" viewBox="0 0 512 512">
<g>
<path d="M 198.00 509.92 C186.79,504.83 185.88,502.50 180.46,464.80 C177.99,447.66 175.86,433.54 175.73,433.43 C175.61,433.32 172.12,431.55 168.00,429.49 C163.88,427.43 156.45,423.13 151.49,419.93 L 142.49 414.11 L 113.75 425.65 C97.94,432.00 83.21,437.43 81.01,437.73 C75.27,438.50 68.56,436.29 63.97,432.11 C58.46,427.10 8.34,340.37 7.41,334.25 C6.46,327.90 7.75,321.64 10.94,317.25 C12.50,315.09 24.58,304.91 37.78,294.61 L 61.78 275.90 L 61.64 255.91 L 61.50 235.92 L 37.54 217.19 C22.93,205.78 12.41,196.81 10.58,194.22 C6.59,188.53 5.81,179.42 8.77,172.89 C11.91,165.94 59.88,83.76 62.31,81.15 C66.21,76.97 72.00,74.61 78.50,74.55 C83.88,74.51 87.42,75.67 112.95,85.92 C128.59,92.20 141.87,97.33 142.45,97.33 C143.03,97.33 147.47,94.77 152.32,91.64 C157.17,88.51 164.37,84.34 168.32,82.36 C172.27,80.38 175.58,78.70 175.67,78.63 C175.77,78.55 177.89,64.45 180.38,47.29 C185.86,9.54 186.78,7.17 198.00,2.08 C202.35,0.11 204.29,0.04 256.00,0.04 C329.83,0.04 324.33,-3.35 331.59,46.70 C334.01,63.45 336.00,77.46 336.00,77.85 C336.00,78.24 339.49,80.29 343.75,82.39 C348.01,84.50 355.55,88.85 360.51,92.06 L 369.51 97.89 L 398.35 86.31 C414.21,79.94 429.12,74.52 431.48,74.25 C438.11,73.50 445.24,76.32 449.73,81.46 C451.80,83.83 460.32,97.64 468.66,112.14 C477.00,126.64 488.47,146.57 494.16,156.43 L 504.50 174.35 L 504.50 182.09 C504.50,189.09 504.21,190.24 501.46,194.15 C499.58,196.82 489.29,205.61 474.46,217.20 L 450.50 235.92 L 450.39 255.88 L 450.27 275.84 L 471.89 292.67 C483.77,301.92 495.39,311.22 497.70,313.32 C503.15,318.31 505.38,324.11 504.81,331.89 C504.43,337.27 503.40,339.55 494.39,355.18 C488.89,364.70 477.44,384.63 468.94,399.46 C451.36,430.16 447.55,434.95 439.12,436.97 C436.23,437.66 432.19,437.97 430.15,437.64 C428.11,437.31 413.64,431.88 397.99,425.56 L 369.53 414.08 L 359.52 420.43 C354.01,423.92 346.58,428.23 343.00,430.01 C339.42,431.78 336.42,433.30 336.33,433.37 C336.24,433.44 334.30,446.55 332.02,462.50 C329.74,478.45 327.41,493.36 326.85,495.63 C325.44,501.31 320.62,506.80 314.57,509.62 L 309.50 511.98 L 256.00 511.97 C204.30,511.96 202.35,511.89 198.00,509.92 ZM 282.60 336.81 C303.28,329.81 320.25,315.80 330.80,297.00 C332.50,293.98 335.36,287.23 337.16,282.00 C340.35,272.76 340.44,272.04 340.44,256.00 C340.44,239.96 340.35,239.24 337.16,230.00 C335.36,224.77 332.50,218.02 330.80,215.00 C320.12,195.96 302.69,181.71 281.67,174.83 C271.89,171.63 270.90,171.50 256.00,171.53 C243.86,171.55 239.20,171.96 234.50,173.40 C203.44,182.92 182.41,203.80 173.77,233.70 C170.51,244.97 170.51,267.03 173.77,278.30 C182.41,308.20 205.04,330.59 234.50,338.37 C243.72,340.80 244.58,340.88 259.00,340.54 C271.27,340.26 273.42,339.92 282.60,336.81 Z" fill="rgba(0,0,0,1)"/>
</g>
</svg>