<?xml version="1.0" encoding="UTF-8"?>
<svg version="1.1" xmlns="http://www.w3.org/2000/svg" width="512" height="512">
<path d="M0 0 C0.79277344 -0.01933594 1.58554687 -0.03867188 2.40234375 -0.05859375 C9.9160066 1.34263266 15.01120821 6.95758494 20.17315674 12.16720581 C20.96106307 12.95043217 21.7489694 13.73365853 22.56075168 14.54061902 C25.19253051 17.16045545 27.81348388 19.79085605 30.43457031 22.42138672 C32.32171866 24.30446908 34.20944194 26.18695865 36.09786987 28.0687561 C40.68905463 32.64662022 45.27211546 37.23253447 49.85228875 41.82141291 C53.57513288 45.55103891 57.30090302 49.27771825 61.02877045 53.00232315 C61.55982521 53.53291821 62.09087997 54.06351327 62.6380273 54.61018697 C63.71693667 55.68813715 64.79585276 56.7660806 65.8747755 57.8440174 C75.98458123 67.94527434 86.08518141 78.05569597 96.18264517 88.16928817 C104.84442871 96.84447829 113.51405306 105.51176734 122.18945312 114.17333984 C132.26900883 124.23683739 142.34367537 134.30518833 152.41059947 144.38132298 C153.48422423 145.45590337 154.55785526 146.53047751 155.63149261 147.60504532 C156.15971474 148.13373027 156.68793686 148.66241521 157.23216571 149.20712092 C160.95256337 152.93010746 164.67642798 156.64960433 168.40164948 160.36776352 C172.94135935 164.89905577 177.47567724 169.43566214 182.00318816 173.97914444 C184.31272454 176.29655937 186.62537951 178.61069924 188.94301224 180.92002106 C191.45559658 183.42442387 193.95878292 185.9378581 196.45977783 188.4538269 C197.19332654 189.18068345 197.92687525 189.90753999 198.68265271 190.6564225 C203.78336558 195.81665215 207.48912485 200.36839506 207.5 207.9375 C207.35257078 212.87637897 206.44909903 215.68478216 203.0625 219.4375 C199.09034854 223.02212449 196.09596617 224.57670277 190.75 224.6875 C189.64205078 224.72617187 189.64205078 224.72617187 188.51171875 224.765625 C181.5625743 223.83463914 177.22832152 219.02435209 172.54544067 214.28120422 C171.80935825 213.54768508 171.07327583 212.81416593 170.31488788 212.05841893 C167.85264372 209.60111229 165.40126857 207.13324416 162.94970703 204.6652832 C161.18594207 202.90067197 159.42151614 201.13672119 157.65647888 199.37338257 C153.85918861 195.57677524 150.06653953 191.77562227 146.27804947 187.97023964 C140.80056602 182.4683485 135.31479211 176.97478519 129.82697617 171.48320236 C120.92304054 162.57270504 112.02582148 153.65553242 103.1328125 144.73413086 C94.49538304 136.06915356 85.85480029 127.40734077 77.20996094 118.74975586 C76.41031714 117.9489298 76.41031714 117.9489298 75.59451891 117.13192544 C72.92004564 114.45353698 70.24551029 111.77521053 67.57094407 109.09691489 C45.39182949 86.88671314 23.22372275 64.66555484 1.0625 42.4375 C-1.86464574 43.75937503 -3.93365088 45.18587672 -6.19561672 47.457901 C-6.82054183 48.08069411 -7.44546695 48.70348722 -8.08932918 49.34515285 C-8.76685602 50.03055173 -9.44438285 50.7159506 -10.1424408 51.42211914 C-10.86920299 52.14928918 -11.59596518 52.87645922 -12.34475046 53.62566471 C-14.78530278 56.06995546 -17.21862825 58.5213173 -19.65209961 60.97265625 C-21.39779802 62.7238285 -23.14395897 64.47453975 -24.89054871 66.224823 C-28.65400009 69.99799553 -32.41446735 73.77410524 -36.17246819 77.55270386 C-41.60984116 83.01960524 -47.05415624 88.47955167 -52.50048334 93.93753111 C-61.34176745 102.79782931 -70.17967389 111.66148742 -79.0144043 120.52832031 C-79.54316017 121.05899412 -80.07191604 121.58966792 -80.61669482 122.13642275 C-86.51640334 128.05767978 -92.41529759 133.97974701 -98.31329346 139.90270996 C-100.45226104 142.0507093 -102.59123627 144.19870102 -104.73022461 146.34667969 C-105.25803191 146.87670865 -105.78583922 147.40673761 -106.32964068 147.95282805 C-115.12831373 156.78821356 -123.93280083 165.61778026 -132.74187285 174.44279766 C-138.17556521 179.88682764 -143.60416102 185.33584506 -149.02632011 190.79136252 C-153.18001852 194.9697978 -157.34140039 199.14052108 -161.50567818 203.30841446 C-163.21393145 205.02069547 -164.91959023 206.7355693 -166.6224823 208.45318222 C-168.94333037 210.79337081 -171.2731973 213.12419222 -173.60557556 215.45288086 C-174.28087167 216.13827973 -174.95616778 216.82367861 -175.65192741 217.52984715 C-180.15244001 221.99636743 -183.81264396 224.71490719 -190.375 224.75 C-195.25369961 224.61245789 -198.85947603 223.54931298 -202.37890625 219.97265625 C-205.86150514 215.91458518 -207.11182579 213.52243707 -207.25 208.25 C-207.28738281 207.32832031 -207.32476562 206.40664063 -207.36328125 205.45703125 C-206.27342401 197.72804368 -200.50473281 192.57531051 -195.20779419 187.32684326 C-194.42456783 186.53893693 -193.64134147 185.7510306 -192.83438098 184.93924832 C-190.21454455 182.30746949 -187.58414395 179.68651612 -184.95361328 177.06542969 C-183.07053092 175.17828134 -181.18804135 173.29055806 -179.3062439 171.40213013 C-174.72837978 166.81094537 -170.14246553 162.22788454 -165.55358709 157.64771125 C-161.82396109 153.92486712 -158.09728175 150.19909698 -154.37267685 146.47122955 C-153.84208179 145.94017479 -153.31148673 145.40912003 -152.76481303 144.8619727 C-151.68686285 143.78306333 -150.6089194 142.70414724 -149.5309826 141.6252245 C-139.42972566 131.51541877 -129.31930403 121.41481859 -119.20571183 111.31735483 C-110.53052171 102.65557129 -101.86323266 93.98594694 -93.20166016 85.31054688 C-83.13816261 75.23099117 -73.06981167 65.15632463 -62.99367702 55.08940053 C-61.91909663 54.01577577 -60.84452249 52.94214474 -59.76995468 51.86850739 C-59.24126973 51.34028526 -58.71258479 50.81206314 -58.16787908 50.26783429 C-54.44489254 46.54743663 -50.72539567 42.82357202 -47.00723648 39.09835052 C-42.47594423 34.55864065 -37.93933786 30.02432276 -33.39585556 25.49681184 C-31.07844063 23.18727546 -28.76430076 20.87462049 -26.45497894 18.55698776 C-23.95057613 16.04440342 -21.4371419 13.54121708 -18.9211731 11.04022217 C-18.19431655 10.30667346 -17.46746001 9.57312475 -16.7185775 8.81734729 C-11.80476415 3.96020862 -7.24956494 0.0117497 0 0 Z " fill="#000000" transform="translate(255.9375,143.5625)"/>
</svg>
