<svg xmlns="http://www.w3.org/2000/svg" width="512" height="512" viewBox="0 0 512 512">
<g>
<path d="M 163.19 489.90 C151.60,487.94 138.27,478.34 133.12,468.24 C127.79,457.79 128.00,464.73 128.00,298.50 C128.00,130.05 127.72,138.27 133.72,128.03 C137.76,121.15 144.93,114.62 152.56,110.89 L 159.50 107.50 L 288.02 107.50 L 416.54 107.50 L 423.49 110.92 C431.15,114.69 438.25,121.17 442.29,128.06 C448.32,138.35 448.06,129.87 447.77,301.08 L 447.50 457.50 L 445.14 463.34 C440.66,474.45 430.83,483.95 419.30,488.31 L 413.50 490.50 L 291.00 490.65 C222.50,490.73 166.16,490.40 163.19,489.90 ZM 390.32 446.93 C392.42,446.34 395.88,444.29 398.01,442.37 C405.57,435.54 405.08,446.07 404.77,296.84 L 404.50 163.17 L 401.46 158.84 C399.78,156.45 396.41,153.38 393.96,152.00 L 389.50 149.50 L 288.00 149.50 L 186.50 149.50 L 182.04 152.00 C179.59,153.38 176.22,156.45 174.54,158.84 L 171.50 163.17 L 171.24 297.60 C170.99,428.46 171.03,432.14 172.90,435.77 C175.47,440.76 179.93,444.86 184.64,446.54 C187.82,447.67 206.04,447.92 287.50,447.95 C354.34,447.98 387.74,447.64 390.32,446.93 ZM 57.76 361.63 C52.09,359.53 49.27,357.36 46.25,352.80 L 43.50 348.65 L 43.22 203.57 C43.02,100.99 43.26,57.20 44.03,54.06 C45.94,46.33 50.14,39.17 56.13,33.45 C62.84,27.05 69.81,23.57 79.00,22.02 C83.53,21.26 121.89,21.01 205.50,21.21 L 325.50 21.50 L 329.96 24.00 C342.74,31.17 344.80,48.63 334.01,58.37 C331.88,60.29 328.42,62.34 326.32,62.93 C323.73,63.65 286.92,63.99 212.36,63.99 L 102.23 64.00 L 96.88 66.79 C92.99,68.83 90.71,70.92 88.52,74.47 L 85.50 79.34 L 85.00 214.09 L 84.50 348.83 L 81.46 353.16 C76.05,360.87 65.69,364.57 57.76,361.63 Z" fill="rgba(0,0,0,1)"/>
</g>
</svg>