<svg xmlns="http://www.w3.org/2000/svg" width="512" height="512" viewBox="0 0 512 512">
<g>
<path d="M 157.50 489.92 C143.07,487.81 127.72,481.06 115.78,471.56 C103.34,461.67 92.54,444.70 87.75,427.50 L 85.53 419.50 L 85.20 295.50 C84.95,203.65 85.17,170.10 86.04,166.12 C90.23,146.77 116.54,143.40 125.35,161.08 L 128.00 166.39 L 128.00 289.59 C128.00,409.60 128.05,412.96 129.98,419.21 C133.93,431.97 144.03,442.04 156.93,446.05 C162.93,447.92 166.85,448.00 256.00,448.00 C345.15,448.00 349.07,447.92 355.07,446.05 C367.97,442.04 378.07,431.97 382.02,419.21 C383.95,412.96 384.00,409.60 384.00,289.59 L 384.00 166.39 L 386.65 161.08 C395.46,143.40 421.77,146.77 425.96,166.12 C426.83,170.10 427.05,203.65 426.80,295.50 L 426.47 419.50 L 424.25 427.50 C419.23,445.54 407.66,463.04 393.87,473.47 C385.93,479.48 373.95,485.30 363.50,488.22 L 355.50 490.46 L 259.50 490.63 C206.70,490.72 160.80,490.40 157.50,489.92 ZM 206.18 382.91 C201.55,381.51 194.72,374.37 193.23,369.38 C191.46,363.46 191.46,212.54 193.23,206.62 C194.90,201.04 201.61,194.45 207.15,192.96 C216.68,190.39 226.82,194.44 231.72,202.78 L 234.50 207.50 L 234.50 288.00 L 234.50 368.50 L 231.72 373.22 C226.80,381.60 215.70,385.81 206.18,382.91 ZM 288.88 381.21 C284.99,379.17 282.71,377.09 280.52,373.53 L 277.50 368.66 L 277.50 288.08 L 277.50 207.50 L 280.28 202.78 C285.18,194.44 295.32,190.39 304.85,192.96 C310.39,194.45 317.10,201.04 318.77,206.62 C320.54,212.54 320.54,363.46 318.77,369.38 C318.06,371.75 315.77,375.28 313.37,377.68 C306.49,384.57 297.74,385.83 288.88,381.21 ZM 78.18 126.86 C73.21,125.43 66.63,118.34 65.06,112.71 C62.40,103.20 66.36,93.22 74.78,88.28 L 79.50 85.50 L 125.20 85.20 L 170.90 84.91 L 171.20 60.04 L 171.50 35.17 L 174.54 30.83 C176.22,28.45 179.59,25.38 182.04,24.00 L 186.50 21.50 L 256.00 21.50 L 325.50 21.50 L 329.96 24.00 C332.41,25.38 335.78,28.45 337.46,30.83 L 340.50 35.17 L 340.80 60.04 L 341.10 84.91 L 386.80 85.20 L 432.50 85.50 L 437.22 88.28 C445.64,93.22 449.60,103.20 446.94,112.71 C445.29,118.61 438.78,125.41 433.35,126.92 C428.31,128.32 83.04,128.26 78.18,126.86 ZM 299.00 74.50 L 299.00 64.00 L 256.00 64.00 L 213.00 64.00 L 213.00 74.50 L 213.00 85.00 L 256.00 85.00 L 299.00 85.00 L 299.00 74.50 Z" fill="rgba(0,0,0,1)"/>
</g>
</svg>