<?xml version="1.0" encoding="UTF-8"?>
<svg version="1.1" xmlns="http://www.w3.org/2000/svg" width="512" height="512">
<path d="M0 0 C3.25084045 2.65647209 6.37010939 5.43330685 9.46875 8.265625 C10.21769531 8.94367188 10.96664063 9.62171875 11.73828125 10.3203125 C18.39572476 16.6494797 25.42406575 24.50013929 28.46875 33.265625 C29.5825 32.73453125 30.69625 32.2034375 31.84375 31.65625 C55.06722962 20.79158432 80.14154355 16.45678833 105.19921875 24.65234375 C116.57542779 28.78843981 126.38768856 34.20453785 135.46875 42.265625 C136.1390625 42.79414063 136.809375 43.32265625 137.5 43.8671875 C152.10000089 55.62829933 161.84880252 74.0468104 165.46875 92.265625 C165.5625 95.16015625 165.5625 95.16015625 165.46875 97.265625 C167.2321875 97.3584375 167.2321875 97.3584375 169.03125 97.453125 C190.72143922 99.96891497 210.69116398 113.85632174 224.234375 130.42578125 C239.96615102 151.64950611 244.87016621 175.83322675 242.20068359 201.88134766 C238.84999098 224.30302624 224.25423023 245.70221723 206.46875 259.265625 C189.30465926 271.10468107 171.32481891 276.74709188 150.44223022 276.66003418 C148.96786844 276.66493445 147.4935105 276.67112947 146.01915896 276.67849207 C142.00338995 276.69477117 137.9878188 276.69259843 133.97202849 276.6871171 C129.62690735 276.68443188 125.28183719 276.69900666 120.93673706 276.71121216 C112.43705536 276.73220678 103.93744196 276.7368104 95.43773739 276.73502427 C88.52315631 276.73371345 81.60859642 276.73753711 74.69401932 276.74494934 C72.69752554 276.74704869 70.70103177 276.74914629 68.70453799 276.75124216 C67.71061902 276.75228569 66.71670004 276.75332922 65.69266231 276.75440437 C46.91864798 276.77328323 28.14467276 276.77226399 9.37065287 276.76543504 C-7.77144113 276.75986333 -24.91338551 276.78067339 -42.05544455 276.81379551 C-59.68980422 276.84760224 -77.32409236 276.86269203 -94.95848501 276.85807848 C-104.84557433 276.85584058 -114.73252545 276.86097682 -124.61958694 276.88597107 C-133.03885315 276.90707479 -141.45790538 276.91048696 -149.87718065 276.89167148 C-154.16523234 276.88256859 -158.45288606 276.8812012 -162.74090576 276.90202713 C-194.9694946 277.0480235 -220.52288843 272.48496825 -244.71875 249.515625 C-262.82468556 230.68429138 -270.21901051 208.35295574 -269.99975586 182.56079102 C-269.34583585 157.2218175 -257.96260662 137.02030528 -240.48046875 119.171875 C-228.60627462 107.90145345 -210.19570682 97.265625 -193.53125 97.265625 C-193.57765625 96.25886719 -193.6240625 95.25210938 -193.671875 94.21484375 C-194.64627839 63.5765007 -181.95137291 35.59640268 -161.53125 13.265625 C-160.81453125 12.46640625 -160.0978125 11.6671875 -159.359375 10.84375 C-148.66988213 -0.48871989 -135.65766101 -8.44028235 -121.53125 -14.734375 C-120.47679687 -15.21648437 -119.42234375 -15.69859375 -118.3359375 -16.1953125 C-80.33497584 -32.23152394 -32.2881858 -25.52270119 0 0 Z " fill="#000000" transform="translate(269.53125,129.734375)"/>
</svg>
