<?xml version="1.0" encoding="UTF-8"?>
<svg version="1.1" xmlns="http://www.w3.org/2000/svg" width="512" height="512">
<path d="M0 0 C1.11162001 0.95102607 2.22298376 1.90235168 3.33424091 2.85380173 C4.26261862 3.64840715 4.26261862 3.64840715 5.20975143 4.4590652 C18.52108429 15.91663392 30.73164988 28.59955855 43.12646317 41.02506924 C46.116802 44.02172963 49.11004063 47.0154909 52.10295105 50.00958252 C57.74984007 55.65955922 63.39417887 61.31207627 69.03756779 66.96554875 C75.47104967 73.41027211 81.90742743 79.85210008 88.34403002 86.29370642 C101.56587361 99.52595624 114.78414128 112.76177285 128 126 C126.57433491 129.2431571 124.84473723 131.40721659 122.34880924 133.90845966 C121.58526381 134.67845399 120.82171837 135.44844832 120.03503519 136.24177581 C118.77101576 137.50114944 118.77101576 137.50114944 117.48146057 138.78596497 C116.58913143 139.68282522 115.69680228 140.57968548 114.77743286 141.50372332 C112.29935399 143.99404829 109.81504646 146.47807733 107.32966053 148.9611069 C104.65037031 151.63998934 101.97681252 154.32458254 99.30247498 157.00840759 C94.06033406 162.26717062 88.81263735 167.5203554 83.56273664 172.77137069 C79.29324034 177.04181731 75.02532738 181.31383986 70.75852776 185.58698082 C58.65639466 197.70673316 46.55007035 209.82227656 34.43837477 221.93247286 C33.7852565 222.58551121 33.13213824 223.23854956 32.45922852 223.91137695 C31.80530968 224.56521402 31.15139085 225.21905109 30.4776563 225.89270141 C19.89133542 236.47821021 9.31501431 247.07364749 -1.25678002 257.67366222 C-12.11665048 268.56229237 -22.98399404 279.44341469 -33.85911709 290.31681174 C-39.96248319 296.41951479 -46.0627531 302.5252394 -52.15499687 308.63904762 C-57.34500668 313.84731026 -62.54195219 319.04852877 -67.74786531 324.24089722 C-70.40134292 326.88786459 -73.05156523 329.5378795 -75.69306564 332.19680405 C-78.5640764 335.08655627 -81.45052797 337.96039101 -84.33860779 340.83308411 C-85.16121092 341.66597436 -85.98381405 342.49886462 -86.83134454 343.35699397 C-98.70021245 355.08715426 -110.87777093 360.38235712 -127.24609375 362.41015625 C-128.24581711 362.53699295 -129.24554047 362.66382965 -130.27555847 362.79450989 C-133.51628001 363.20273325 -136.75792565 363.60267023 -140 364 C-141.61826691 364.19894867 -141.61826691 364.19894867 -143.26922607 364.4019165 C-149.97356159 365.22192145 -156.68062592 366.01542604 -163.39038086 366.78979492 C-165.68124602 367.05603016 -167.97161436 367.32657403 -170.26147461 367.60131836 C-214.38076268 372.89037206 -214.38076268 372.89037206 -229.51953125 361.16796875 C-236.9781073 354.64905583 -241.62431926 345.84769482 -243 336 C-243.5208336 326.69024429 -242.21493586 317.43137354 -241.171875 308.19921875 C-240.97955202 306.47346853 -240.78735462 304.7477043 -240.59527588 303.02192688 C-240.19241168 299.41657347 -239.78484455 295.81178599 -239.37451172 292.20727539 C-238.85348195 287.62302514 -238.34908524 283.03711274 -237.8488884 278.45054913 C-237.45762673 274.88817018 -237.05490892 271.3271512 -236.64914703 267.76639748 C-236.45854875 266.07782923 -236.27194685 264.38880426 -236.08968353 262.69931602 C-233.88018705 242.3171526 -228.57480541 227.88913313 -213.692276 213.21125793 C-212.31735628 211.83121166 -212.31735628 211.83121166 -210.91466039 210.42328566 C-208.39680791 207.89657468 -205.86680154 205.38236335 -203.33445394 202.87019145 C-200.59582892 200.14896007 -197.86889607 197.41605352 -195.14047241 194.68460083 C-190.42056151 189.96260005 -185.69342578 185.24793531 -180.96119881 180.53827858 C-174.11934728 173.72903777 -167.28866501 166.90868106 -160.46059363 160.08562537 C-149.38022803 149.01399823 -138.29097316 137.95131952 -127.19604492 126.89428711 C-116.42311029 116.15811015 -105.65441587 105.41770909 -94.89135742 94.67163086 C-93.894966 93.67681578 -93.894966 93.67681578 -92.87844545 92.66190342 C-89.54582311 89.3345015 -86.21328354 86.0070167 -82.88078511 82.67949069 C-55.26667666 55.10679912 -27.63810526 27.54863655 0 0 Z " fill="#000000" transform="translate(269,115)"/>
<path d="M0 0 C8.14781193 6.70000128 15.54064818 14.3458055 23.015625 21.77734375 C23.61678886 22.37443209 24.21795273 22.97152042 24.83733368 23.58670235 C28.01133288 26.74002455 31.18217675 29.8964815 34.35058594 33.05541992 C37.59877594 36.29250413 40.85849417 39.51772103 44.12085342 42.74051571 C46.65332705 45.24672882 49.17676385 47.76189828 51.69792938 50.27948189 C52.89530745 51.47202896 54.09602492 52.66123389 55.3003006 53.84681511 C63.44210624 61.86988676 70.55710683 69.77793063 74.3125 80.8125 C74.77076172 82.12154297 74.77076172 82.12154297 75.23828125 83.45703125 C79.09063201 96.31795609 77.39036776 109.72793931 71.375 121.625 C65.27007101 131.9212242 56.0546256 140.08730487 47.62109375 148.4765625 C46.55756436 149.53822096 45.49425987 150.60010475 44.4311676 151.66220093 C41.66668417 154.42291224 38.89920884 157.18060431 36.13104248 159.93762207 C33.29318695 162.76514771 30.45824998 165.59559643 27.62304688 168.42578125 C22.08484141 173.9533433 16.54346356 179.47771064 11 185 C7.15680042 183.41579204 4.72875769 180.97517218 1.8114624 178.05197144 C1.04679511 177.28986742 1.04679511 177.28986742 0.26668 176.51236737 C-1.43930637 174.80967375 -3.13804872 173.09993321 -4.83691406 171.39013672 C-6.05873381 170.16775282 -7.28099415 168.94580917 -8.50366211 167.72427368 C-11.82186245 164.40664767 -15.13385587 161.0828869 -18.44478321 157.75800467 C-21.90588382 154.28441009 -25.3726408 150.81647027 -28.83880615 147.34793091 C-35.40172523 140.77879315 -41.95952896 134.20457332 -48.51551795 127.62852013 C-55.97948115 120.14221004 -63.44911734 112.66157135 -70.91923952 105.18140769 C-86.28582144 89.79391498 -101.64525199 74.39930086 -117 59 C-115.22854502 55.21116115 -113.02526382 52.75960828 -110.06640625 49.77587891 C-109.56523788 49.26799332 -109.06406952 48.76010773 -108.54771423 48.23683167 C-106.89126236 46.56140536 -105.22738945 44.89360189 -103.5625 43.2265625 C-102.40089523 42.05852574 -101.2394392 40.89034104 -100.078125 39.72201538 C-97.64044305 37.27235939 -95.19866292 34.82687224 -92.75439453 32.38378906 C-89.6420479 29.27164478 -86.54363999 26.14602268 -83.44871521 23.01656532 C-81.0516347 20.59709755 -78.64536585 18.18692658 -76.23654175 15.77915573 C-75.0915978 14.6318702 -73.94985169 13.48138318 -72.81155396 12.3275032 C-64.90612314 4.32411576 -57.04097042 -2.6187402 -46.1875 -6.3125 C-45.31480469 -6.61800781 -44.44210937 -6.92351563 -43.54296875 -7.23828125 C-28.57119922 -11.72291268 -12.85758547 -8.57444328 0 0 Z " fill="#000000" transform="translate(409,35)"/>
</svg>
