<svg xmlns="http://www.w3.org/2000/svg" width="512" height="512" viewBox="0 0 512 512">
<g>
<path d="M 118.03 405.89 C113.45,404.06 108.79,399.76 106.91,395.62 C104.62,390.58 104.46,382.25 106.54,377.22 C107.61,374.64 126.12,355.45 166.78,314.75 L 225.47 256.01 L 166.78 197.25 C126.25,156.67 107.62,137.35 106.55,134.78 C103.46,127.36 105.14,116.74 110.30,111.13 C115.52,105.45 126.97,103.30 134.78,106.54 C137.36,107.61 156.55,126.12 197.25,166.78 L 256.00 225.48 L 314.75 166.78 C355.45,126.12 374.64,107.61 377.22,106.54 C385.03,103.30 396.48,105.45 401.70,111.13 C406.86,116.74 408.54,127.35 405.46,134.78 C404.39,137.36 385.88,156.55 345.22,197.25 L 286.52 256.00 L 345.22 314.75 C385.88,355.45 404.39,374.64 405.46,377.22 C406.31,379.26 407.00,383.33 407.00,386.26 C407.00,397.54 399.22,405.99 388.11,406.80 C376.89,407.61 379.88,410.12 315.24,345.65 L 255.98 286.54 L 197.24 345.23 C156.55,385.88 137.36,404.39 134.78,405.46 C130.64,407.18 121.82,407.40 118.03,405.89 Z" fill="rgba(0,0,0,1)"/>
</g>
</svg>